<svg width="34" height="34" viewBox="0 0 34 34" fill="none" xmlns="http://www.w3.org/2000/svg">
<path d="M1.04382 1.13281C1.40124 0.775832 1.88574 0.575322 2.3909 0.575322C2.89606 0.575322 3.38056 0.775832 3.73798 1.13281L17.0055 14.4003L30.273 1.13281C30.506 0.881885 30.8023 0.69845 31.1309 0.601831C31.4594 0.505212 31.8078 0.498985 32.1396 0.583809C32.4713 0.668633 32.7741 0.841366 33.0159 1.08381C33.2577 1.32625 33.4296 1.62943 33.5136 1.96139C33.5985 2.29277 33.5926 2.6409 33.4965 2.96919C33.4003 3.29749 33.2174 3.5938 32.9672 3.82698L19.6996 17.0945L32.9672 30.362C33.2181 30.595 33.4015 30.8913 33.4981 31.2199C33.5947 31.5484 33.601 31.8968 33.5161 32.2286C33.4313 32.5603 33.2586 32.8631 33.0162 33.1049C32.7737 33.3467 32.4705 33.5186 32.1386 33.6026C31.8072 33.6875 31.4591 33.6816 31.1308 33.5854C30.8025 33.4893 30.5062 33.3064 30.273 33.0561L17.0055 19.7886L3.73798 33.0561C3.3764 33.3927 2.89844 33.5759 2.40455 33.5674C1.91066 33.5589 1.43931 33.3592 1.08957 33.0104C0.740741 32.6607 0.541079 32.1893 0.532547 31.6954C0.524016 31.2015 0.707278 30.7236 1.04382 30.362L14.3113 17.0945L1.04382 3.82698C0.686839 3.46956 0.486328 2.98505 0.486328 2.47989C0.486328 1.97474 0.686839 1.49023 1.04382 1.13281Z" fill="#606060"/>
</svg>
