<svg width="16" height="16" viewBox="0 0 16 16" fill="none" xmlns="http://www.w3.org/2000/svg">
<path d="M0.512329 8.00031H15.7844V14.8728C15.7844 15.0753 15.704 15.2695 15.5608 15.4127C15.4176 15.5559 15.2234 15.6364 15.0208 15.6364H1.27593C1.07341 15.6364 0.879188 15.5559 0.735984 15.4127C0.59278 15.2695 0.512329 15.0753 0.512329 14.8728V8.00031ZM11.9664 1.89147H15.0208C15.2234 1.89147 15.4176 1.97192 15.5608 2.11512C15.704 2.25833 15.7844 2.45255 15.7844 2.65507V6.4731H0.512329V2.65507C0.512329 2.45255 0.59278 2.25833 0.735984 2.11512C0.879188 1.97192 1.07341 1.89147 1.27593 1.89147H4.33036V0.364258H5.85757V1.89147H10.4392V0.364258H11.9664V1.89147Z" fill="black"/>
</svg>
