<svg width="59" height="51" viewBox="0 0 59 51" fill="none" xmlns="http://www.w3.org/2000/svg">
<path d="M26.8076 2.75329L26.1172 1.0866L26.8076 2.75329C27.6011 2.4246 28.4516 2.25543 29.3105 2.25543C31.0452 2.25543 32.7088 2.94451 33.9353 4.17109L35.1973 2.90918L33.9353 4.17109C35.1619 5.39767 35.851 7.06127 35.851 8.79591C35.851 10.5306 35.1619 12.1942 33.9353 13.4207C32.7088 14.6473 31.0452 15.3364 29.3105 15.3364C28.4516 15.3364 27.6011 15.1672 26.8076 14.8385L26.1172 16.5052L26.8076 14.8385C26.0141 14.5098 25.293 14.0281 24.6857 13.4207C24.0784 12.8134 23.5966 12.0924 23.2679 11.2988C22.9392 10.5053 22.77 9.65482 22.77 8.79591C22.77 7.937 22.9392 7.0865 23.2679 6.29298C23.5966 5.49945 24.0784 4.77843 24.6857 4.17109C25.293 3.56375 26.0141 3.08198 26.8076 2.75329ZM20.9576 23.1292H20.9577H37.6634C38.2926 23.1292 38.896 23.3791 39.3409 23.8241C39.7858 24.269 40.0358 24.8724 40.0358 25.5016V38.0305C40.0358 38.0306 40.0358 38.0308 40.0358 38.0309C40.0355 39.1562 39.8595 40.2745 39.5142 41.3454C38.7222 43.7709 37.0918 45.8348 34.9154 47.1667C32.7383 48.499 30.1576 49.0116 27.6366 48.6124C25.1155 48.2132 22.8194 46.9283 21.1605 44.9885C19.5019 43.0491 18.5888 40.582 18.5853 38.03C18.5853 38.0296 18.5853 38.0291 18.5853 38.0286L18.5853 25.5016V25.4794C18.5911 24.8551 18.8428 24.2582 19.2859 23.8182C19.7304 23.3769 20.3313 23.1292 20.9576 23.1292ZM1.87958 35.9433V35.9427V25.5016C1.87958 24.8724 2.12953 24.269 2.57444 23.8241C3.01935 23.3791 3.62278 23.1292 4.25199 23.1292H9.34963C9.56313 23.1292 9.88804 23.2446 10.2359 23.7327C10.5871 24.2255 10.8008 24.9029 10.8008 25.5016V38.025C10.7981 39.4318 10.9564 40.8291 11.2693 42.1906C11.4378 42.9236 11.3449 43.644 11.1198 44.0995C11.0139 44.3139 10.9004 44.4285 10.8147 44.4869C10.7416 44.5367 10.6347 44.5846 10.4409 44.5829C10.1646 44.5804 9.88784 44.5648 9.61166 44.5357C8.20537 44.3875 6.85696 43.8963 5.68486 43.1052C4.51276 42.3142 3.55281 41.2474 2.88933 39.9987C2.22584 38.7499 1.8791 37.3573 1.87958 35.9433ZM56.7415 35.9427V35.9433C56.7419 37.3573 56.3952 38.7499 55.7317 39.9987C55.0682 41.2474 54.1083 42.3142 52.9362 43.1052C51.7641 43.8963 50.4157 44.3875 49.0094 44.5357C48.7333 44.5647 48.4567 44.5804 48.1805 44.5829C47.9868 44.5846 47.8799 44.5367 47.8068 44.4869C47.7211 44.4286 47.6077 44.3139 47.5016 44.0994C47.2764 43.6437 47.1834 42.9228 47.3517 42.1892C47.6587 40.8507 47.8202 39.4586 47.8202 38.0309V25.5016C47.8202 24.9003 48.0339 24.2231 48.3842 23.7314C48.7305 23.2452 49.0549 23.1292 49.2709 23.1292H54.3691C54.9983 23.1292 55.6017 23.3791 56.0466 23.8241C56.4915 24.269 56.7415 24.8724 56.7415 25.5016V35.9427ZM44.9503 7.72999C45.7868 6.89346 46.9214 6.4235 48.1044 6.4235C49.2875 6.4235 50.422 6.89346 51.2586 7.72999C52.0951 8.56652 52.5651 9.70109 52.5651 10.8841C52.5651 12.0672 52.0951 13.2017 51.2586 14.0383C50.422 14.8748 49.2875 15.3447 48.1044 15.3447C46.9214 15.3447 45.7868 14.8748 44.9503 14.0383C44.1138 13.2017 43.6438 12.0672 43.6438 10.8841C43.6438 9.70109 44.1138 8.56651 44.9503 7.72999ZM7.36248 7.72999C8.19901 6.89346 9.33359 6.4235 10.5166 6.4235C11.6997 6.4235 12.8342 6.89346 13.6708 7.72999C14.5073 8.56651 14.9772 9.70109 14.9772 10.8841C14.9772 12.0672 14.5073 13.2017 13.6708 14.0383C12.8342 14.8748 11.6997 15.3447 10.5166 15.3447C9.33359 15.3447 8.19901 14.8748 7.36249 14.0383C6.52596 13.2017 6.056 12.0672 6.056 10.8841C6.056 9.70109 6.52596 8.56652 7.36248 7.72999Z" stroke="#5C5C5C" stroke-width="3.60803"/>
</svg>
