<svg width="26" height="51" viewBox="0 0 26 51" fill="none" xmlns="http://www.w3.org/2000/svg">
<path d="M4.95763 23.1292H4.95767H21.6634C22.2926 23.1292 22.896 23.3791 23.3409 23.8241C23.7858 24.269 24.0358 24.8724 24.0358 25.5016V38.0305C24.0358 38.0306 24.0358 38.0307 24.0358 38.0309C24.0355 39.1562 23.8595 40.2746 23.5141 41.3456C22.7221 43.771 21.0917 45.8348 18.9154 47.1667C16.7383 48.499 14.1576 49.0116 11.6366 48.6124C9.11554 48.2132 6.81941 46.9283 5.16048 44.9885C3.50178 43.049 2.58875 40.5817 2.58526 38.0297V25.5016V25.4796C2.59106 24.8552 2.84277 24.2582 3.28593 23.8182C3.73037 23.3768 4.33129 23.1292 4.95763 23.1292ZM10.8076 2.75329C11.6011 2.4246 12.4516 2.25543 13.3105 2.25543C15.0452 2.25543 16.7088 2.94451 17.9353 4.17109C19.1619 5.39767 19.851 7.06127 19.851 8.79591C19.851 10.5306 19.1619 12.1942 17.9353 13.4207C16.7088 14.6473 15.0452 15.3364 13.3105 15.3364C12.4516 15.3364 11.6011 15.1672 10.8076 14.8385C10.0141 14.5098 9.29304 14.0281 8.6857 13.4207C8.07836 12.8134 7.59659 12.0924 7.2679 11.2988C6.93921 10.5053 6.77004 9.65482 6.77004 8.79591C6.77004 7.937 6.93921 7.0865 7.2679 6.29298C7.59659 5.49945 8.07836 4.77843 8.6857 4.17109C9.29304 3.56375 10.0141 3.08198 10.8076 2.75329Z" stroke="#5C5C5C" stroke-width="3.60803"/>
</svg>
