<svg width="47" height="40" viewBox="0 0 47 40" fill="none" xmlns="http://www.w3.org/2000/svg">
<path d="M4.86183 35.3766C3.6681 35.3766 2.64656 34.9519 1.7972 34.1025C0.947845 33.2532 0.522443 32.2309 0.520996 31.0357V4.99074C0.520996 3.79701 0.946398 2.77546 1.7972 1.92611C2.64801 1.07675 3.66955 0.651349 4.86183 0.649902H16.0937C16.6725 0.649902 17.2245 0.758423 17.7498 0.975465C18.275 1.19251 18.7359 1.49998 19.1323 1.89789L22.2252 4.99074H39.5885C40.7822 4.99074 41.8045 5.41614 42.6553 6.26694C43.5061 7.11774 43.9308 8.13929 43.9293 9.33157V13.6724C43.9293 14.2874 43.721 14.8032 43.3043 15.2199C42.8875 15.6366 42.3724 15.8443 41.7589 15.8428C41.144 15.8428 40.6289 15.6345 40.2136 15.2177C39.7983 14.801 39.59 14.2859 39.5885 13.6724V9.33157H20.4346L16.0937 4.99074H4.86183V31.0357H20.0548C20.6697 31.0357 21.1855 31.2441 21.6023 31.6608C22.019 32.0775 22.2266 32.5926 22.2252 33.2062C22.2252 33.8211 22.0168 34.3369 21.6001 34.7537C21.1834 35.1704 20.6683 35.378 20.0548 35.3766H4.86183ZM26.566 37.547V33.9658C26.566 33.6764 26.6203 33.3964 26.7288 33.1258C26.8373 32.8553 27.0001 32.6107 27.2171 32.3922L38.5576 21.1061C38.8831 20.7805 39.2449 20.5454 39.6428 20.4007C40.0407 20.256 40.4386 20.1837 40.8365 20.1837C41.2706 20.1837 41.6866 20.2654 42.0845 20.4289C42.4824 20.5924 42.8441 20.8362 43.1697 21.1603L45.1773 23.168C45.4667 23.4935 45.6932 23.8553 45.8567 24.2532C46.0202 24.6511 46.1012 25.049 46.0998 25.4469C46.0998 25.8448 46.0274 26.2521 45.8827 26.6689C45.738 27.0856 45.5029 27.456 45.1773 27.7801L33.8912 39.0663C33.6741 39.2833 33.4303 39.4461 33.1597 39.5546C32.8891 39.6631 32.6084 39.7174 32.3176 39.7174H28.7364C28.1215 39.7174 27.6064 39.5098 27.1911 39.0945C26.7758 38.6792 26.5674 38.1634 26.566 37.547ZM29.8216 36.4618H31.8835L38.449 29.842L37.4723 28.8111L36.4414 27.8344L29.8216 34.3999V36.4618ZM37.4723 28.8111L36.4414 27.8344L38.449 29.842L37.4723 28.8111Z" fill="#5C5C5C"/>
</svg>
