<svg width="21" height="20" viewBox="0 0 21 20" fill="none" xmlns="http://www.w3.org/2000/svg">
<path d="M19.1484 19L13.1484 13M1.14838 8C1.14838 8.91925 1.32944 9.82951 1.68122 10.6788C2.033 11.5281 2.54862 12.2997 3.19863 12.9497C3.84864 13.5998 4.62031 14.1154 5.46959 14.4672C6.31887 14.8189 7.22912 15 8.14838 15C9.06763 15 9.97788 14.8189 10.8272 14.4672C11.6764 14.1154 12.4481 13.5998 13.0981 12.9497C13.7481 12.2997 14.2638 11.5281 14.6155 10.6788C14.9673 9.82951 15.1484 8.91925 15.1484 8C15.1484 7.08075 14.9673 6.1705 14.6155 5.32122C14.2638 4.47194 13.7481 3.70026 13.0981 3.05025C12.4481 2.40024 11.6764 1.88463 10.8272 1.53284C9.97788 1.18106 9.06763 1 8.14838 1C7.22912 1 6.31887 1.18106 5.46959 1.53284C4.62031 1.88463 3.84864 2.40024 3.19863 3.05025C2.54862 3.70026 2.033 4.47194 1.68122 5.32122C1.32944 6.1705 1.14838 7.08075 1.14838 8Z" stroke="#292929" stroke-width="2" stroke-linecap="round" stroke-linejoin="round"/>
</svg>
