<svg width="96" height="26" viewBox="0 0 96 26" fill="none" xmlns="http://www.w3.org/2000/svg">
<circle cx="89.3495" cy="19.0288" r="6.23145" fill="#6EE8E9"/>
<path d="M54.4231 24.2947H47.3181V4.23975C47.3181 1.92975 48.9981 0.739746 50.8531 0.739746C52.2181 0.739746 53.5131 1.40475 54.0731 2.66475C55.4031 1.40475 57.1181 0.739746 58.9731 0.739746C61.1081 0.739746 63.1731 1.43975 64.6431 3.18975C66.0781 1.68475 68.1081 0.739746 70.9431 0.739746C75.3881 0.739746 79.2731 3.01475 79.2731 10.3297V24.2947H72.0631V9.90975C72.0631 7.52975 70.5581 6.72475 69.4031 6.72475C68.2481 6.72475 66.7081 7.52975 66.7081 9.90975V24.2947H59.7781V9.90975C59.7781 7.52975 58.2731 6.72475 57.1181 6.72475C55.9981 6.72475 54.4231 7.49475 54.4231 9.73475V24.2947Z" fill="#2F2F2F"/>
<path d="M31.5733 24.8547C27.1283 24.8547 23.5933 22.6497 23.5933 15.2647V4.23975C23.5933 1.82475 25.2383 0.739746 27.1983 0.739746C29.1583 0.739746 30.8033 1.82475 30.8033 4.23975V15.6847C30.8033 18.0647 32.3783 18.8697 33.5683 18.8697C34.7233 18.8697 36.3683 18.0997 36.3683 15.8597V4.20475C36.3683 1.82475 37.9783 0.739746 39.9033 0.739746C41.8633 0.739746 43.4733 1.82475 43.4733 4.20475V24.2947H37.9083L37.5233 21.9847C36.2283 23.7697 34.0933 24.8547 31.5733 24.8547Z" fill="#2F2F2F"/>
<path d="M11.6014 24.8547C6.31641 24.8547 0.821411 22.4747 0.821411 14.9147V10.4347C0.821411 2.97975 6.31641 0.739746 10.7964 0.739746C18.4432 0.739746 20.4564 4.88687 20.4564 12.6047C20.4564 13.1997 20.3864 14.1797 20.2814 14.7747H7.75141V14.8097C7.75141 18.1347 10.0614 18.9397 11.7414 18.9397C13.4564 18.9397 14.1914 18.7997 15.1364 18.4847C15.6614 18.3097 16.1864 18.0297 16.7814 17.9597C17.9714 17.8197 19.0914 18.2397 19.5464 19.2897C20.2814 21.0047 19.4414 22.4747 17.7614 23.4547C16.6414 24.1197 14.1564 24.8547 11.6014 24.8547ZM10.8314 6.40975C9.29141 6.40975 7.78641 7.17975 7.75141 10.1897H13.6664C13.7714 7.17975 12.3714 6.40975 10.8314 6.40975Z" fill="#2F2F2F"/>
</svg>
