<svg width="22" height="22" viewBox="0 0 22 22" fill="none" xmlns="http://www.w3.org/2000/svg">
<circle cx="11.3206" cy="11.054" r="9.4086" fill="#DEDEDE" stroke="white" stroke-width="2.29082"/>
<path fill-rule="evenodd" clip-rule="evenodd" d="M15.4913 7.80999C15.5509 7.8611 15.5999 7.92345 15.6354 7.99349C15.6709 8.06353 15.6923 8.13988 15.6983 8.21819C15.7043 8.29649 15.6948 8.3752 15.6703 8.44983C15.6459 8.52447 15.607 8.59355 15.5558 8.65313L10.7743 14.2316C10.7207 14.2941 10.6548 14.3449 10.5806 14.3807C10.5064 14.4166 10.4257 14.4367 10.3433 14.4398C10.261 14.443 10.1789 14.4291 10.1023 14.399C10.0256 14.3689 9.95594 14.3233 9.89772 14.265L7.1085 11.4758C6.99968 11.363 6.93951 11.212 6.94094 11.0553C6.94238 10.8986 7.00531 10.7487 7.11618 10.638C7.22705 10.5272 7.37698 10.4644 7.5337 10.4631C7.69041 10.4618 7.84136 10.5222 7.95403 10.6311L10.2874 12.9637L14.6489 7.87534C14.7521 7.75515 14.8988 7.68084 15.0568 7.66874C15.2147 7.65664 15.371 7.70693 15.4913 7.80999Z" fill="white"/>
</svg>
