<svg width="10" height="8" viewBox="0 0 10 8" fill="none" xmlns="http://www.w3.org/2000/svg">
<path fill-rule="evenodd" clip-rule="evenodd" d="M9.49129 0.809993C9.55092 0.861098 9.59989 0.923452 9.63541 0.993492C9.67093 1.06353 9.6923 1.13988 9.69829 1.21819C9.70428 1.29649 9.69479 1.3752 9.67035 1.44983C9.64591 1.52447 9.607 1.59355 9.55584 1.65313L4.77433 7.23156C4.72072 7.29411 4.65476 7.34489 4.5806 7.38074C4.50643 7.41658 4.42565 7.4367 4.34334 7.43984C4.26102 7.44299 4.17895 7.42908 4.10226 7.399C4.02558 7.36892 3.95594 7.32331 3.89772 7.26504L1.1085 4.47582C0.999681 4.36304 0.939508 4.21204 0.940943 4.05533C0.942378 3.89861 1.00531 3.74873 1.11618 3.63797C1.22705 3.5272 1.37698 3.46442 1.5337 3.46313C1.69041 3.46184 1.84136 3.52216 1.95403 3.63109L4.28741 5.96367L8.64895 0.875341C8.75214 0.755153 8.89882 0.680844 9.05676 0.668741C9.21471 0.656637 9.371 0.706932 9.49129 0.809993Z" fill="white"/>
</svg>
