<svg width="22" height="22" viewBox="0 0 22 22" fill="none" xmlns="http://www.w3.org/2000/svg">
<circle cx="11.105" cy="10.9998" r="9.4086" fill="#3376F6" stroke="white" stroke-width="2.29082"/>
<path fill-rule="evenodd" clip-rule="evenodd" d="M15.2757 7.75579C15.3353 7.8069 15.3843 7.86925 15.4198 7.93929C15.4554 8.00933 15.4767 8.08569 15.4827 8.16399C15.4887 8.24229 15.4792 8.32101 15.4548 8.39564C15.4303 8.47027 15.3914 8.53935 15.3403 8.59893L10.5588 14.1774C10.5051 14.2399 10.4392 14.2907 10.365 14.3265C10.2909 14.3624 10.2101 14.3825 10.1278 14.3856C10.0454 14.3888 9.96337 14.3749 9.88669 14.3448C9.81 14.3147 9.74036 14.2691 9.68214 14.2108L6.89293 11.4216C6.78411 11.3088 6.72393 11.1578 6.72537 11.0011C6.7268 10.8444 6.78973 10.6945 6.9006 10.5838C7.01147 10.473 7.16141 10.4102 7.31812 10.4089C7.47483 10.4076 7.62578 10.468 7.73846 10.5769L10.0718 12.9095L14.4334 7.82114C14.5366 7.70095 14.6832 7.62665 14.8412 7.61454C14.9991 7.60244 15.1554 7.65273 15.2757 7.75579Z" fill="white"/>
</svg>
