<svg width="17" height="17" viewBox="0 0 17 17" fill="none" xmlns="http://www.w3.org/2000/svg">
<path d="M8.37988 0.182129C3.96611 0.182129 0.375 3.77324 0.375 8.18701C0.375 12.6008 3.96611 16.1919 8.37988 16.1919C12.7937 16.1919 16.3848 12.6008 16.3848 8.18701C16.3848 3.77324 12.7937 0.182129 8.37988 0.182129ZM8.37988 1.41365C12.128 1.41365 15.1532 4.43888 15.1532 8.18701C15.1532 11.9351 12.128 14.9604 8.37988 14.9604C4.63175 14.9604 1.60652 11.9351 1.60652 8.18701C1.60652 4.43888 4.63175 1.41365 8.37988 1.41365ZM7.76412 4.49245V7.57125H4.68532V8.80277H7.76412V11.8816H8.99564V8.80277H12.0744V7.57125H8.99564V4.49245H7.76412Z" fill="white"/>
</svg>
