<svg width="28" height="29" viewBox="0 0 28 29" fill="none" xmlns="http://www.w3.org/2000/svg">
<path d="M23.2839 4.75643L23.2835 4.75683L21.6413 6.39904L18.2568 3.01453L19.899 1.37233L19.8994 1.37193C19.9506 1.32058 20.0115 1.27984 20.0785 1.25204C20.1455 1.22425 20.2173 1.20994 20.2899 1.20994C20.3624 1.20994 20.4343 1.22425 20.5013 1.25204C20.5683 1.27984 20.6291 1.32058 20.6804 1.37193L20.6808 1.37233L23.2835 3.97503L23.2839 3.97543C23.3352 4.02668 23.376 4.08754 23.4038 4.15455C23.4316 4.22156 23.4459 4.29339 23.4459 4.36593C23.4459 4.43847 23.4316 4.51031 23.4038 4.57731C23.376 4.64432 23.3352 4.70519 23.2839 4.75643ZM7.91915 20.1212H4.53465V16.7367L16.2802 4.99115L19.6647 8.37565L7.91915 20.1212Z" fill="#C9C9C9" stroke="#C9C9C9" stroke-width="1.11227"/>
<path d="M1.16992 24.0142H26.8096" stroke="#C9C9C9" stroke-width="2.22453" stroke-linecap="round" stroke-linejoin="round"/>
</svg>
