<svg width="62" height="61" viewBox="0 0 62 61" fill="none" xmlns="http://www.w3.org/2000/svg">
<path d="M15.3678 14.538C15.7252 14.181 16.2097 13.9805 16.7149 13.9805C17.22 13.9805 17.7045 14.181 18.062 14.538L31.3295 27.8055L44.597 14.538C44.83 14.2871 45.1263 14.1037 45.4548 14.007C45.7833 13.9104 46.1318 13.9042 46.4636 13.989C46.7953 14.0738 47.098 14.2466 47.3399 14.489C47.5817 14.7315 47.7536 15.0346 47.8376 15.3666C47.9225 15.698 47.9166 16.0461 47.8204 16.3744C47.7243 16.7027 47.5414 16.999 47.2911 17.2322L34.0236 30.4997L47.2911 43.7672C47.542 44.0002 47.7255 44.2966 47.8221 44.6251C47.9187 44.9536 47.9249 45.3021 47.8401 45.6338C47.7553 45.9656 47.5826 46.2683 47.3401 46.5101C47.0977 46.7519 46.7945 46.9239 46.4625 47.0078C46.1312 47.0928 45.783 47.0868 45.4547 46.9907C45.1264 46.8945 44.8301 46.7117 44.597 46.4614L31.3295 33.1939L18.062 46.4614C17.7004 46.7979 17.2224 46.9812 16.7285 46.9726C16.2346 46.9641 15.7633 46.7644 15.4135 46.4156C15.0647 46.0659 14.8651 45.5945 14.8565 45.1006C14.848 44.6067 15.0313 44.1288 15.3678 43.7672L28.6353 30.4997L15.3678 17.2322C15.0108 16.8748 14.8103 16.3903 14.8103 15.8851C14.8103 15.3799 15.0108 14.8954 15.3678 14.538Z" fill="#606060"/>
</svg>
