<svg width="24" height="22" viewBox="0 0 24 22" fill="none" xmlns="http://www.w3.org/2000/svg">
<path d="M10.9559 19.4446L10.9545 19.4433C7.99943 16.7637 5.6232 14.6038 3.97463 12.5869C2.33651 10.5828 1.51641 8.83616 1.51641 6.99893C1.51641 4.00108 3.84957 1.67705 6.83829 1.67705C8.5353 1.67705 10.1798 2.47196 11.2489 3.71768L11.9698 4.55762L12.6907 3.71768C13.7599 2.47196 15.4044 1.67705 17.1014 1.67705C20.0901 1.67705 22.4233 4.00108 22.4233 6.99893C22.4233 8.83616 21.6031 10.5828 19.965 12.5869C18.3165 14.6038 15.9402 16.7637 12.9852 19.4433L12.9838 19.4446L11.9698 20.3676L10.9559 19.4446Z" stroke="#C9C9C9" stroke-width="1.9"/>
</svg>
