<svg width="33" height="33" viewBox="0 0 33 33" fill="none" xmlns="http://www.w3.org/2000/svg">
<g clip-path="url(#clip0_453_5301)">
<path d="M16.6974 23.1418C17.3959 23.1418 18.0658 23.4193 18.5598 23.9132C19.0537 24.4072 19.3312 25.0771 19.3312 25.7757C19.3312 26.4742 19.0537 27.1442 18.5598 27.6381C18.0658 28.1321 17.3959 28.4096 16.6974 28.4096C15.9988 28.4096 15.3289 28.1321 14.8349 27.6381C14.341 27.1442 14.0635 26.4742 14.0635 25.7757C14.0635 25.0771 14.341 24.4072 14.8349 23.9132C15.3289 23.4193 15.9988 23.1418 16.6974 23.1418ZM16.6974 13.9232C17.3959 13.9232 18.0658 14.2007 18.5598 14.6946C19.0537 15.1886 19.3312 15.8585 19.3312 16.5571C19.3312 17.2556 19.0537 17.9256 18.5598 18.4195C18.0658 18.9135 17.3959 19.191 16.6974 19.191C15.9988 19.191 15.3289 18.9135 14.8349 18.4195C14.341 17.9256 14.0635 17.2556 14.0635 16.5571C14.0635 15.8585 14.341 15.1886 14.8349 14.6946C15.3289 14.2007 15.9988 13.9232 16.6974 13.9232ZM16.6974 4.70459C17.3959 4.70459 18.0658 4.98209 18.5598 5.47604C19.0537 5.96999 19.3312 6.63993 19.3312 7.33847C19.3312 8.03702 19.0537 8.70696 18.5598 9.20091C18.0658 9.69486 17.3959 9.97236 16.6974 9.97236C15.9988 9.97236 15.3289 9.69486 14.8349 9.20091C14.341 8.70696 14.0635 8.03702 14.0635 7.33847C14.0635 6.63993 14.341 5.96999 14.8349 5.47604C15.3289 4.98209 15.9988 4.70459 16.6974 4.70459Z" fill="#C9C9C9"/>
</g>
<defs>
<clipPath id="clip0_453_5301">
<rect width="31.6066" height="31.6066" fill="white" transform="translate(0.893555 0.753906)"/>
</clipPath>
</defs>
</svg>
