<svg width="21" height="21" viewBox="0 0 21 21" fill="none" xmlns="http://www.w3.org/2000/svg">
<path fill-rule="evenodd" clip-rule="evenodd" d="M12.3639 1.22901C12.4509 1.39801 12.4729 1.61501 12.5159 2.04901C12.5979 2.86901 12.6389 3.27901 12.8109 3.50501C12.918 3.64533 13.0605 3.75478 13.2236 3.82223C13.3868 3.88967 13.5649 3.91272 13.7399 3.88901C14.0199 3.85201 14.3399 3.59101 14.9779 3.06901C15.3149 2.79201 15.4839 2.65401 15.6649 2.59601C15.8954 2.52235 16.1448 2.53478 16.3669 2.63101C16.5419 2.70701 16.6969 2.86101 17.0039 3.16901L17.8979 4.06301C18.2059 4.37101 18.3599 4.52501 18.4359 4.70001C18.5321 4.92207 18.5445 5.17149 18.4709 5.40201C18.4129 5.58301 18.2749 5.75201 17.9989 6.08901C17.4759 6.72801 17.2149 7.04701 17.1769 7.32801C17.1535 7.50291 17.1768 7.68089 17.2444 7.84387C17.312 8.00686 17.4215 8.14905 17.5619 8.25601C17.7869 8.42801 18.1979 8.46901 19.0189 8.55101C19.4519 8.59401 19.6689 8.61601 19.8389 8.70301C20.0533 8.81421 20.2203 8.99928 20.3089 9.22401C20.3799 9.40101 20.3799 9.61901 20.3799 10.055V11.319C20.3799 11.755 20.3799 11.973 20.3099 12.149C20.221 12.3745 20.0533 12.5599 19.8379 12.671C19.6689 12.758 19.4519 12.78 19.0179 12.823C18.1979 12.905 17.7879 12.946 17.5619 13.118C17.4216 13.2252 17.3121 13.3676 17.2447 13.5308C17.1772 13.6939 17.1542 13.872 17.1779 14.047C17.2159 14.327 17.4769 14.647 17.9989 15.285C18.2749 15.622 18.4129 15.79 18.4709 15.972C18.5445 16.2025 18.5321 16.452 18.4359 16.674C18.3599 16.849 18.2059 17.003 17.8979 17.311L17.0039 18.204C16.6959 18.513 16.5419 18.667 16.3669 18.742C16.1448 18.8382 15.8954 18.8507 15.6649 18.777C15.4839 18.719 15.3149 18.581 14.9779 18.305C14.3389 17.783 14.0199 17.522 13.7399 17.485C13.5649 17.4613 13.3868 17.4843 13.2236 17.5518C13.0605 17.6192 12.918 17.7287 12.8109 17.869C12.6389 18.094 12.5979 18.504 12.5159 19.325C12.4729 19.759 12.4509 19.976 12.3639 20.145C12.2531 20.3602 12.068 20.5279 11.8429 20.617C11.6659 20.687 11.4479 20.687 11.0119 20.687H9.74788C9.31188 20.687 9.09388 20.687 8.91788 20.617C8.69244 20.5281 8.50694 20.3604 8.39588 20.145C8.30888 19.976 8.28688 19.759 8.24388 19.325C8.16188 18.505 8.12088 18.095 7.94888 17.869C7.84181 17.7288 7.69956 17.6195 7.53659 17.5521C7.37361 17.4846 7.19569 17.4615 7.02088 17.485C6.73988 17.522 6.42088 17.783 5.78188 18.305C5.44488 18.582 5.27588 18.72 5.09488 18.778C4.86436 18.8517 4.61494 18.8392 4.39288 18.743C4.21788 18.667 4.06288 18.513 3.75588 18.205L2.86188 17.311C2.55388 17.003 2.39988 16.849 2.32388 16.674C2.22766 16.452 2.21522 16.2025 2.28888 15.972C2.34688 15.791 2.48488 15.622 2.76088 15.285C3.28388 14.646 3.54488 14.327 3.58188 14.046C3.6054 13.8712 3.58227 13.6933 3.51483 13.5303C3.44739 13.3673 3.33804 13.2251 3.19788 13.118C2.97288 12.946 2.56188 12.905 1.74088 12.823C1.30788 12.78 1.09088 12.758 0.920883 12.671C0.70643 12.5598 0.539479 12.3747 0.450883 12.15C0.379883 11.973 0.379883 11.755 0.379883 11.319V10.055C0.379883 9.61901 0.379883 9.40101 0.449883 9.22501C0.53877 8.99957 0.706498 8.81407 0.921883 8.70301C1.09088 8.61601 1.30788 8.59401 1.74188 8.55101C2.56188 8.46901 2.97288 8.42801 3.19788 8.25601C3.33823 8.14905 3.44777 8.00686 3.51539 7.84387C3.583 7.68089 3.60629 7.50291 3.58288 7.32801C3.54488 7.04701 3.28288 6.72801 2.76088 6.08801C2.48488 5.75101 2.34688 5.58301 2.28888 5.40101C2.21522 5.17049 2.22766 4.92107 2.32388 4.69901C2.39988 4.52501 2.55388 4.37001 2.86188 4.06201L3.75588 3.16901C4.06388 2.86101 4.21788 2.70601 4.39288 2.63101C4.61494 2.53478 4.86436 2.52235 5.09488 2.59601C5.27588 2.65401 5.44488 2.79201 5.78188 3.06801C6.42088 3.59001 6.73988 3.85101 7.01988 3.88901C7.1951 3.91279 7.37348 3.88968 7.53685 3.82205C7.70023 3.75442 7.84274 3.64468 7.94988 3.50401C8.11988 3.27901 8.16188 2.86901 8.24388 2.04801C8.28688 1.61501 8.30888 1.39801 8.39588 1.22801C8.50689 1.01318 8.69198 0.845855 8.91688 0.757012C9.09388 0.687012 9.31188 0.687012 9.74788 0.687012H11.0119C11.4479 0.687012 11.6659 0.687012 11.8419 0.757012C12.0673 0.845899 12.2528 1.01363 12.3639 1.22901ZM10.3799 14.687C11.4407 14.687 12.4582 14.2656 13.2083 13.5154C13.9585 12.7653 14.3799 11.7479 14.3799 10.687C14.3799 9.62615 13.9585 8.60873 13.2083 7.85858C12.4582 7.10844 11.4407 6.68701 10.3799 6.68701C9.31902 6.68701 8.3016 7.10844 7.55146 7.85858C6.80131 8.60873 6.37988 9.62615 6.37988 10.687C6.37988 11.7479 6.80131 12.7653 7.55146 13.5154C8.3016 14.2656 9.31902 14.687 10.3799 14.687Z" fill="#A9A9A9"/>
</svg>
