<svg width="119" height="120" viewBox="0 0 119 120" fill="none" xmlns="http://www.w3.org/2000/svg">
<path d="M59.3799 0.219727C91.9655 0.219727 118.38 26.8616 118.38 59.7281C118.38 92.5945 91.9655 119.236 59.3799 119.236C26.7943 119.236 0.380127 92.5945 0.380127 59.7281C0.380127 26.8616 26.7943 0.219727 59.3799 0.219727ZM59.3799 12.1214C46.8618 12.1214 34.8563 17.1371 26.0046 26.0651C17.1529 34.993 12.1801 47.102 12.1801 59.7281C12.1801 72.3541 17.1529 84.4631 26.0046 93.3911C34.8563 102.319 46.8618 107.335 59.3799 107.335C71.8981 107.335 83.9036 102.319 92.7553 93.3911C101.607 84.4631 106.58 72.3541 106.58 59.7281C106.58 47.102 101.607 34.993 92.7553 26.0651C83.9036 17.1371 71.8981 12.1214 59.3799 12.1214ZM59.3799 77.5806C60.9447 77.5806 62.4454 78.2075 63.5519 79.3235C64.6583 80.4395 65.2799 81.9531 65.2799 83.5314C65.2799 85.1096 64.6583 86.6233 63.5519 87.7393C62.4454 88.8553 60.9447 89.4822 59.3799 89.4822C57.8152 89.4822 56.3145 88.8553 55.208 87.7393C54.1016 86.6233 53.48 85.1096 53.48 83.5314C53.48 81.9531 54.1016 80.4395 55.208 79.3235C56.3145 78.2075 57.8152 77.5806 59.3799 77.5806ZM59.3799 24.0231C60.9447 24.0231 62.4454 24.65 63.5519 25.766C64.6583 26.882 65.2799 28.3956 65.2799 29.9739V65.6789C65.2799 67.2571 64.6583 68.7708 63.5519 69.8868C62.4454 71.0028 60.9447 71.6297 59.3799 71.6297C57.8152 71.6297 56.3145 71.0028 55.208 69.8868C54.1016 68.7708 53.48 67.2571 53.48 65.6789V29.9739C53.48 28.3956 54.1016 26.882 55.208 25.766C56.3145 24.65 57.8152 24.0231 59.3799 24.0231Z" fill="#F8BB86"/>
</svg>
