<svg width="119" height="120" viewBox="0 0 119 120" fill="none" xmlns="http://www.w3.org/2000/svg">
<path d="M59.8801 0.219727C92.4657 0.219727 118.88 26.8616 118.88 59.7281C118.88 92.5945 92.4657 119.236 59.8801 119.236C27.2945 119.236 0.880249 92.5945 0.880249 59.7281C0.880249 26.8616 27.2945 0.219727 59.8801 0.219727ZM59.8801 12.1214C47.3619 12.1214 35.3564 17.1371 26.5047 26.0651C17.653 34.993 12.6802 47.102 12.6802 59.7281C12.6802 72.3541 17.653 84.4631 26.5047 93.3911C35.3564 102.319 47.3619 107.335 59.8801 107.335C72.3982 107.335 84.4037 102.319 93.2554 93.3911C102.107 84.4631 107.08 72.3541 107.08 59.7281C107.08 47.102 102.107 34.993 93.2554 26.0651C84.4037 17.1371 72.3982 12.1214 59.8801 12.1214ZM59.8801 77.5806C61.4448 77.5806 62.9455 78.2075 64.052 79.3235C65.1584 80.4395 65.78 81.9531 65.78 83.5314C65.78 85.1096 65.1584 86.6233 64.052 87.7393C62.9455 88.8553 61.4448 89.4822 59.8801 89.4822C58.3153 89.4822 56.8146 88.8553 55.7081 87.7393C54.6017 86.6233 53.9801 85.1096 53.9801 83.5314C53.9801 81.9531 54.6017 80.4395 55.7081 79.3235C56.8146 78.2075 58.3153 77.5806 59.8801 77.5806ZM59.8801 24.0231C61.4448 24.0231 62.9455 24.65 64.052 25.766C65.1584 26.882 65.78 28.3956 65.78 29.9739V65.6789C65.78 67.2571 65.1584 68.7708 64.052 69.8868C62.9455 71.0028 61.4448 71.6297 59.8801 71.6297C58.3153 71.6297 56.8146 71.0028 55.7081 69.8868C54.6017 68.7708 53.9801 67.2571 53.9801 65.6789V29.9739C53.9801 28.3956 54.6017 26.882 55.7081 25.766C56.8146 24.65 58.3153 24.0231 59.8801 24.0231Z" fill="#6EE8E9"/>
</svg>
